<svg xmlns="http://www.w3.org/2000/svg" width="760" height="420" viewBox="0 0 760 420" fill="none">
  <defs>
    <linearGradient id="bg" x1="70" y1="30" x2="690" y2="390" gradientUnits="userSpaceOnUse">
      <stop stop-color="#EFF6FF"/>
      <stop offset="1" stop-color="#DBEAFE"/>
    </linearGradient>
    <filter id="shadow" x="-20%" y="-20%" width="140%" height="160%">
      <feDropShadow dx="0" dy="12" stdDeviation="18" flood-color="#0F172A" flood-opacity=".08"/>
    </filter>
  </defs>
  <path d="M173 37C270-7 435 13 560 91c103 65 146 185 84 260-74 89-238 65-361 38-110-24-218-74-234-167C33 127 80 80 173 37Z" fill="url(#bg)"/>
  <circle cx="535" cy="108" r="43" fill="white" opacity=".88"/>
  <path d="m535 82 7 17 17 7-17 7-7 17-7-17-17-7 17-7 7-17Z" fill="#2563EB"/>
  <g filter="url(#shadow)">
    <rect x="80" y="102" width="330" height="142" rx="24" fill="white"/>
    <rect x="107" y="126" width="50" height="50" rx="16" fill="#EAF2FF"/>
    <path d="m132 136 4.5 10.5L147 151l-10.5 4.5L132 166l-4.5-10.5L117 151l10.5-4.5L132 136Z" fill="#2563EB"/>
    <text x="179" y="146" font-family="Arial, sans-serif" font-size="20" font-weight="700" fill="#0F172A">Karier Lebih Dekat</text>
    <text x="179" y="171" font-family="Arial, sans-serif" font-size="20" font-weight="700" fill="#0F172A">dengan Teknologi AI</text>
    <text x="179" y="203" font-family="Arial, sans-serif" font-size="15" fill="#64748B">Rekomendasi lowongan sesuai profilmu</text>
  </g>

  <g filter="url(#shadow)">
    <rect x="422" y="129" width="218" height="54" rx="27" fill="white"/>
    <circle cx="454" cy="156" r="17" fill="#DCFCE7"/>
    <path d="M447 157l5 5 10-12" stroke="#16A34A" stroke-width="3" stroke-linecap="round" stroke-linejoin="round"/>
    <text x="482" y="163" font-family="Arial, sans-serif" font-size="16" font-weight="700" fill="#1E293B">Lebih Relevan</text>
  </g>
  <g filter="url(#shadow)">
    <rect x="454" y="198" width="187" height="54" rx="27" fill="white"/>
    <circle cx="486" cy="225" r="17" fill="#EAF2FF"/>
    <path d="m486 214 3 7 7 3-7 3-3 7-3-7-7-3 7-3 3-7Z" fill="#2563EB"/>
    <text x="514" y="232" font-family="Arial, sans-serif" font-size="16" font-weight="700" fill="#1E293B">Lebih Cepat</text>
  </g>
  <g filter="url(#shadow)">
    <rect x="427" y="268" width="214" height="54" rx="27" fill="white"/>
    <circle cx="459" cy="295" r="17" fill="#EEF2FF"/>
    <path d="M451 300h16M454 294h10M457 288h4" stroke="#4F46E5" stroke-width="2.5" stroke-linecap="round"/>
    <text x="487" y="302" font-family="Arial, sans-serif" font-size="16" font-weight="700" fill="#1E293B">Lebih Mudah</text>
  </g>

  <path d="M661 70c20 7 38 22 47 40" stroke="#2563EB" stroke-width="3" stroke-linecap="round"/>
  <path d="m701 99 8 12-14 1" stroke="#2563EB" stroke-width="3" stroke-linecap="round" stroke-linejoin="round"/>
  <text x="574" y="55" font-family="Arial, sans-serif" font-size="18" font-style="italic" font-weight="700" fill="#1D4ED8">Karier impian</text>
  <text x="594" y="77" font-family="Arial, sans-serif" font-size="18" font-style="italic" font-weight="700" fill="#1D4ED8">mulai di sini!</text>
</svg>